# xmcd
#
# Track frame offsets: 
#        151
#        23230
#        43282
#        63203
#        80184
#        101097
#        121834
#        141275
#        158616
#        176909
#        195215
#        214497
#        243953
#        267845
#        294142
#        315918
#        333116
#
# Disc length: 4762 seconds
#
# Revision: 0
# Processed by: cddbd v1.4PL0 Copyright (c) Steve Scherf et al.
# Submitted via: ExactAudioCopy v0.95a3
#
DISCID=ec129811
DTITLE=Alizee - Les courantes electrigue
DYEAR=2003
DGENRE=A Cappella
TTITLE0=Jen Ai Marre
TTITLE1=A Contre-Courant
TTITLE2=Toc De Mac
TTITLE3=Amelie Ma Dit
TTITLE4=Cest Trop Tard
TTITLE5=Tempete
TTITLE6=Jai Pas Vingt Ans
TTITLE7=Hey Amigo
TTITLE8=Le-Mail A Des Ailes
TTITLE9=Youpidou
TTITLE10=Coeur Deja Pris
TTITLE11=Moi... Lolita (Lato Extended Mix)
TTITLE12=L'Alize (Vent D'amour club rmx)
TTITLE13=Moi... Lolita (Hello Hellit'es A Dance Mix)
TTITLE14=L'Alize (Sirocco House Remix)
TTITLE15=Moi... Lolita (Lolidub Remix)
TTITLE16=L'Alize (Dans Le Vent Dance Mix)
EXTD=
EXTT0=
EXTT1=
EXTT2=
EXTT3=
EXTT4=
EXTT5=
EXTT6=
EXTT7=
EXTT8=
EXTT9=
EXTT10=
EXTT11=
EXTT12=
EXTT13=
EXTT14=
EXTT15=
EXTT16=
PLAYORDER=
